<svg width="124" height="44" viewBox="0 0 124 44" fill="none" xmlns="http://www.w3.org/2000/svg">
    <path
        d="M85.9887 15.1408C85.9887 16.8088 85.0475 17.5793 83.6558 17.5793C82.254 17.5793 81.3442 16.8088 81.3442 15.1408V9.65614H78.3262V15.2486C78.3262 18.8946 81.3656 20.3267 83.667 20.3267C85.9359 20.3267 89.0068 18.8946 89.0068 15.2486V9.65614H85.9887V15.1408Z"
        fill="#7000FF" />
    <path
        d="M75.7789 12.2012V9.65597H65.9878V12.2012H71.787L65.752 17.5892V20.1333H76.1428V17.5892H69.754L75.7789 12.2012Z"
        fill="#7000FF" />
    <path
        d="M104.202 9.45365C102.286 9.45365 100.853 10.2343 100.135 11.4103C99.4082 10.2343 97.8346 9.45365 96.1869 9.45365C92.9655 9.45365 91.3076 11.5058 91.3076 14.0397V20.1343H94.3246V14.4677C94.3246 13.2602 94.967 12.1909 96.4227 12.1909C97.8885 12.1909 98.6478 13.2175 98.6478 14.425V20.1343H101.666V14.425C101.666 13.2175 102.382 12.1909 103.838 12.1909C105.294 12.1909 105.979 13.2602 105.979 14.4677V20.1343H108.997V14.0397C108.997 11.5058 107.434 9.45365 104.202 9.45365Z"
        fill="#7000FF" />
    <path
        d="M60.7544 15.1408C60.7544 16.8088 59.8131 17.5793 58.4214 17.5793C57.0197 17.5793 56.1099 16.8088 56.1099 15.1408V9.65614H53.0918V15.2486C53.0918 18.8946 56.1312 20.3267 58.4327 20.3267C60.7016 20.3267 63.7724 18.8946 63.7724 15.2486V9.65614H60.7544V15.1408Z"
        fill="#7000FF" />
    <path
        d="M90.8147 27.1156C90.8147 24.8163 89.103 23.6628 85.667 23.6729C83.3027 23.6729 80.5519 24.3143 80.5519 26.8482C80.5519 28.1849 81.355 29.2429 82.5322 29.6068C83.7419 29.9809 84.9617 30.1628 86.2028 30.2583C86.8981 30.3122 88.1931 30.5144 88.1931 31.2849C88.1819 31.9903 87.3799 32.343 85.7962 32.343C84.1586 32.343 83.4521 31.9802 83.4521 31.0277V30.7076H80.3486V31.0277C80.3486 33.4022 82.157 34.5883 85.7962 34.5883C89.4556 34.5995 91.2966 33.4763 91.2966 31.2535C91.2966 29.5642 90.0981 28.5375 88.5998 28.2377C87.1553 27.9378 85.6457 27.9063 84.4472 27.5963C83.9227 27.4581 83.6554 27.1695 83.6554 26.8696C83.6554 26.2282 84.2978 25.907 85.603 25.907C86.8981 25.907 87.7113 26.0889 87.7113 27.1156H90.8147Z"
        fill="#7000FF" />
    <path
        d="M60.7544 28.8479C60.7544 27.19 59.8131 26.4206 58.4214 26.4206C57.0197 26.4206 56.1099 27.19 56.1099 28.8479V34.3438H53.0918V28.7513C53.0918 25.1053 56.1312 23.6732 58.4327 23.6732C60.7016 23.6732 63.7724 25.1053 63.7724 28.7513V34.3438H60.7544V28.8479Z"
        fill="#7000FF" />
    <path
        d="M77.6093 30.665V23.8651H74.6238L74.6451 25.5229C74.0026 24.5502 72.8581 23.6629 70.8352 23.6629C67.3364 23.6629 65.5493 26.3777 65.5493 29.0936C65.4853 31.841 67.5071 34.5884 70.6858 34.5884C72.3549 34.5884 73.8858 33.8403 74.6238 32.525C74.9338 33.391 75.6616 34.3424 77.224 34.3424H78.947V31.7983H78.4652C77.8766 31.7983 77.6093 31.5737 77.6093 30.665ZM71.4552 31.9578C69.7445 31.9578 68.4596 30.7818 68.4596 29.1138C68.4596 27.4672 69.7445 26.3137 71.4552 26.3137C73.2332 26.3137 74.5058 27.4672 74.5058 29.1138C74.5058 30.7818 73.2332 31.9578 71.4552 31.9578Z"
        fill="#7000FF" />
    <path d="M93.1357 34.3428H96.1538V23.8654H93.1357V34.3428Z" fill="#7000FF" />
    <path
        d="M107.412 23.8657L104.597 31.2744L101.226 23.8657H97.7373L103.088 34.8237C102.585 36.0638 102.168 36.4277 101.151 36.4277H99.5884V39.0571H101.419C103.677 39.0571 104.897 37.8171 106.138 34.8237L110.687 23.8657H107.412Z"
        fill="#7000FF" />
    <path
        d="M122.662 30.665V23.8651H119.677L119.698 25.5229C119.045 24.5502 117.9 23.6629 115.877 23.6629C112.389 23.6629 110.602 26.3777 110.602 29.0936C110.537 31.841 112.56 34.5884 115.727 34.5884C117.408 34.5884 118.939 33.8403 119.677 32.525C119.975 33.391 120.714 34.3424 122.277 34.3424H124V31.7983H123.518C122.919 31.7983 122.662 31.5737 122.662 30.665ZM116.508 31.9578C114.796 31.9578 113.512 30.7818 113.512 29.1138C113.512 27.4672 114.796 26.3137 116.508 26.3137C118.275 26.3137 119.559 27.4672 119.559 29.1138C119.559 30.7818 118.275 31.9578 116.508 31.9578Z"
        fill="#7000FF" />
    <path
        d="M35.1644 14.7177C33.4358 14.1528 31.6106 13.6833 29.7 13.3418V22.8947C29.7 29.7722 26.7763 33.3867 21.3871 33.3867C16.0193 33.3867 13.0843 29.7722 13.0843 22.8947V13.3418C11.1737 13.6833 9.34962 14.1528 7.621 14.7177V22.9487C7.621 30.5079 13.7886 36.6811 21.3871 36.6811C28.9957 36.6811 35.1644 30.5079 35.1644 22.9487V14.7177ZM23.8413 8.0863C23.0416 8.01105 22.2194 7.9796 21.3871 7.9796C20.5649 7.9796 19.7438 8.01105 18.943 8.0863V19.4622H23.8413V8.0863ZM42.7731 22.0108C42.7731 33.782 33.201 43.3237 21.3871 43.3237C9.58325 43.3237 0 33.782 0 22.0108C0 10.2182 9.58325 0.676464 21.3871 0.676464C33.201 0.676464 42.7731 10.2182 42.7731 22.0108Z"
        fill="#7000FF" />
</svg>
