<?xml version="1.0" encoding="UTF-8"?>
<!DOCTYPE svg PUBLIC "-//W3C//DTD SVG 1.1//EN" "http://www.w3.org/Graphics/SVG/1.1/DTD/svg11.dtd">
<!-- Creator: CorelDRAW -->
<svg xmlns="http://www.w3.org/2000/svg" xml:space="preserve" width="42.3333mm" height="42.3333mm" version="1.1" style="shape-rendering:geometricPrecision; text-rendering:geometricPrecision; image-rendering:optimizeQuality; fill-rule:evenodd; clip-rule:evenodd"
viewBox="0 0 5651.16 5651.16"
 xmlns:xlink="http://www.w3.org/1999/xlink"
 xmlns:xodm="http://www.corel.com/coreldraw/odm/2003">
 <defs>
  <style type="text/css">
   <![CDATA[
    .fil1 {fill:#FECA40}
    .fil0 {fill:#13306A;fill-rule:nonzero}
   ]]>
  </style>
 </defs>
 <g id="Layer_x0020_1">
  <metadata id="CorelCorpID_0Corel-Layer"/>
  <g id="_2195097986016">
   <path class="fil0" d="M4914.57 1960.36c-128.85,-310.8 143.24,-898.5 -90.95,-1132.81 -234.32,-234.19 -822.06,37.9 -1132.85,-90.99 -299.81,-124.45 -520.31,-736.56 -865.19,-736.56 -344.85,0 -565.35,612.1 -865.16,736.56 -310.84,128.89 -898.54,-143.2 -1132.85,90.99 -234.19,234.32 37.9,822.02 -90.99,1132.81 -124.44,299.81 -736.57,520.35 -736.57,865.19 0,344.89 612.13,565.39 736.57,865.19 128.89,310.81 -143.2,898.55 90.99,1132.87 234.32,234.19 822.02,-37.9 1132.85,90.95 299.81,124.48 520.31,736.61 865.16,736.61 344.88,0 565.38,-612.13 865.19,-736.61 310.8,-128.85 898.54,143.24 1132.85,-90.95 234.19,-234.32 -37.9,-822.06 90.95,-1132.87 124.49,-299.8 736.6,-520.3 736.6,-865.19 0,-344.84 -612.1,-565.38 -736.6,-865.19z"/>
   <path class="fil1" d="M2365.12 2435.04c35.3,-545.06 402.53,-989.59 891.91,-1149.25 -75.05,-16.13 -152.19,-26.97 -231.1,-32.08 -868.11,-56.2 -1617.42,601.97 -1673.63,1470.08 -56.2,868.11 601.97,1617.42 1470.1,1673.63 593.89,38.46 1132.2,-257.45 1431,-726.21 -202.19,104.55 -434.53,157.19 -678.23,141.41 -714.57,-46.27 -1256.31,-663.03 -1210.04,-1377.59z"/>
   <polygon class="fil1" points="3631.96,1891.58 3822.98,2333.38 4302.17,2378.51 3941.02,2696.7 4046.16,3166.39 3631.96,2921.25 3217.75,3166.41 3322.9,2696.7 2961.74,2378.51 3440.95,2333.38 "/>
   <path class="fil1" d="M3603.39 685.92l0 1452.25 57.11 0 0 -1415.98c-19.33,-10.28 -38.34,-22.45 -57.11,-36.27z"/>
  </g>
 </g>
</svg>
